<svg width="128" height="49" viewBox="0 0 128 49" fill="none" xmlns="http://www.w3.org/2000/svg">
<path d="M15.9023 19.7227C15.9023 20.332 15.7969 20.8984 15.5859 21.4219C15.375 21.9453 15.0781 22.3984 14.6953 22.7812C14.3203 23.1641 13.8711 23.4648 13.3477 23.6836C12.8242 23.8945 12.2539 24 11.6367 24H0.46875V20.9531H11.6367C12.0117 20.9531 12.3047 20.8477 12.5156 20.6367C12.7266 20.418 12.832 20.1133 12.832 19.7227V7.19531H15.9023V19.7227ZM32.7656 19.7227C32.7656 20.2461 32.6992 20.7188 32.5664 21.1406C32.4336 21.5547 32.2578 21.9219 32.0391 22.2422C31.8203 22.5547 31.5664 22.8242 31.2773 23.0508C30.9883 23.2695 30.6836 23.4492 30.3633 23.5898C30.0508 23.7305 29.7305 23.8359 29.4023 23.9062C29.082 23.9688 28.7773 24 28.4883 24H22.9922C22.5703 24 22.1094 23.9258 21.6094 23.7773C21.1094 23.6289 20.6445 23.3867 20.2148 23.0508C19.793 22.707 19.4375 22.2656 19.1484 21.7266C18.8672 21.1797 18.7266 20.5117 18.7266 19.7227V15.5977C18.7266 14.8164 18.8672 14.1562 19.1484 13.6172C19.4375 13.0703 19.793 12.6289 20.2148 12.293C20.6445 11.9492 21.1094 11.7031 21.6094 11.5547C22.1094 11.4062 22.5703 11.332 22.9922 11.332H28.4883C29.2695 11.332 29.9336 11.4727 30.4805 11.7539C31.0273 12.0352 31.4688 12.3906 31.8047 12.8203C32.1406 13.2422 32.3828 13.7031 32.5312 14.2031C32.6875 14.7031 32.7656 15.168 32.7656 15.5977V19.7227ZM29.7188 15.6211C29.7188 15.1992 29.6133 14.8867 29.4023 14.6836C29.1914 14.4805 28.8867 14.3789 28.4883 14.3789H23.0156C22.6094 14.3789 22.3008 14.4844 22.0898 14.6953C21.8789 14.8984 21.7734 15.1992 21.7734 15.5977V19.7227C21.7734 20.1211 21.8789 20.4258 22.0898 20.6367C22.3008 20.8477 22.6094 20.9531 23.0156 20.9531H28.4883C28.9023 20.9531 29.2109 20.8477 29.4141 20.6367C29.6172 20.4258 29.7188 20.1211 29.7188 19.7227V15.6211ZM46.4531 14.3789H39.5977C39.1836 14.3789 38.8711 14.4844 38.6602 14.6953C38.4492 14.8984 38.3438 15.1992 38.3438 15.5977V24H35.2969V15.5977C35.2969 15.0742 35.3633 14.6055 35.4961 14.1914C35.6289 13.7773 35.8047 13.4141 36.0234 13.1016C36.25 12.7812 36.5078 12.5117 36.7969 12.293C37.0859 12.0664 37.3867 11.8828 37.6992 11.7422C38.0195 11.6016 38.3398 11.5 38.6602 11.4375C38.9883 11.3672 39.293 11.332 39.5742 11.332H46.4531V14.3789ZM62.3203 19.7227C62.3203 20.2461 62.2539 20.7188 62.1211 21.1406C61.9883 21.5547 61.8125 21.9219 61.5938 22.2422C61.375 22.5547 61.1211 22.8242 60.832 23.0508C60.543 23.2695 60.2383 23.4492 59.918 23.5898C59.6055 23.7305 59.2852 23.8359 58.957 23.9062C58.6367 23.9688 58.332 24 58.043 24H52.5469C52.0234 24 51.5547 23.9336 51.1406 23.8008C50.7266 23.668 50.3594 23.4922 50.0391 23.2734C49.7266 23.0469 49.457 22.7891 49.2305 22.5C49.0117 22.2109 48.832 21.9102 48.6914 21.5977C48.5508 21.2773 48.4453 20.957 48.375 20.6367C48.3125 20.3086 48.2812 20.0039 48.2812 19.7227V15.5977C48.2812 14.8164 48.4219 14.1562 48.7031 13.6172C48.9922 13.0703 49.3477 12.6289 49.7695 12.293C50.1992 11.9492 50.6641 11.7031 51.1641 11.5547C51.6641 11.4062 52.125 11.332 52.5469 11.332H58.043V14.3789H52.5703C52.1641 14.3789 51.8555 14.4844 51.6445 14.6953C51.4336 14.8984 51.3281 15.1992 51.3281 15.5977V19.6992C51.3281 20.1133 51.4297 20.4258 51.6328 20.6367C51.8438 20.8477 52.1484 20.9531 52.5469 20.9531H58.043C58.457 20.9531 58.7656 20.8477 58.9688 20.6367C59.1719 20.4258 59.2734 20.1211 59.2734 19.7227V5.97656H62.3203V19.7227ZM78.3047 19.8047C78.3047 20.2266 78.2305 20.6836 78.082 21.1758C77.9336 21.6602 77.6914 22.1133 77.3555 22.5352C77.0273 22.9492 76.5938 23.2969 76.0547 23.5781C75.5234 23.8594 74.875 24 74.1094 24H68.6133C68.1914 24 67.7344 23.9258 67.2422 23.7773C66.7578 23.6289 66.3047 23.3906 65.8828 23.0625C65.4688 22.7266 65.1211 22.293 64.8398 21.7617C64.5586 21.2227 64.418 20.5703 64.418 19.8047C64.418 19.3828 64.4922 18.9258 64.6406 18.4336C64.7891 17.9414 65.0273 17.4883 65.3555 17.0742C65.6914 16.6523 66.125 16.3008 66.6562 16.0195C67.1953 15.7383 67.8477 15.5977 68.6133 15.5977H74.1094V18.5039H68.6133C68.1992 18.5039 67.8789 18.6328 67.6523 18.8906C67.4258 19.1406 67.3125 19.4531 67.3125 19.8281C67.3125 20.2266 67.4414 20.5391 67.6992 20.7656C67.9648 20.9844 68.2773 21.0938 68.6367 21.0938H74.1094C74.5234 21.0938 74.8438 20.9688 75.0703 20.7188C75.2969 20.4688 75.4102 20.1562 75.4102 19.7812V15.5273C75.4102 15.1289 75.2852 14.8125 75.0352 14.5781C74.793 14.3438 74.4844 14.2266 74.1094 14.2266H67.418V11.332H74.1094C74.5312 11.332 74.9844 11.4062 75.4688 11.5547C75.9609 11.7031 76.4141 11.9453 76.8281 12.2812C77.25 12.6094 77.6016 13.043 77.8828 13.582C78.1641 14.1133 78.3047 14.7617 78.3047 15.5273V19.8047ZM94.9453 24H91.8984V16.9688C91.8984 16.5703 91.8281 16.2148 91.6875 15.9023C91.5547 15.582 91.3711 15.3086 91.1367 15.082C90.9023 14.8555 90.625 14.6836 90.3047 14.5664C89.9922 14.4414 89.6523 14.3789 89.2852 14.3789H83.9531V24H80.9062V12.8438C80.9062 12.6328 80.9453 12.4375 81.0234 12.2578C81.1016 12.0703 81.2109 11.9102 81.3516 11.7773C81.4922 11.6367 81.6562 11.5273 81.8438 11.4492C82.0312 11.3711 82.2305 11.332 82.4414 11.332H89.3086C89.6914 11.332 90.0938 11.375 90.5156 11.4609C90.9453 11.5469 91.3672 11.6875 91.7812 11.8828C92.2031 12.0703 92.6016 12.3125 92.9766 12.6094C93.3594 12.8984 93.6953 13.2539 93.9844 13.6758C94.2812 14.0898 94.5156 14.5703 94.6875 15.1172C94.8594 15.6641 94.9453 16.2812 94.9453 16.9688V24Z" fill="#0558AE"/>
<path d="M67.3828 42H63.0586L56.2031 35.1328H54.0586V32.0625H56.2031L63.0586 25.1953H67.3828L58.7461 33.5977L67.3828 42ZM52.8398 42H49.793V25.1953H52.8398V42ZM80.0391 32.3789H73.1836C72.7695 32.3789 72.457 32.4844 72.2461 32.6953C72.0352 32.8984 71.9297 33.1992 71.9297 33.5977V42H68.8828V33.5977C68.8828 33.0742 68.9492 32.6055 69.082 32.1914C69.2148 31.7773 69.3906 31.4141 69.6094 31.1016C69.8359 30.7812 70.0938 30.5117 70.3828 30.293C70.6719 30.0664 70.9727 29.8828 71.2852 29.7422C71.6055 29.6016 71.9258 29.5 72.2461 29.4375C72.5742 29.3672 72.8789 29.332 73.1602 29.332H80.0391V32.3789ZM95.6367 33.5273C95.6367 33.9492 95.5625 34.4062 95.4141 34.8984C95.2656 35.3828 95.0234 35.8359 94.6875 36.2578C94.3594 36.6719 93.9258 37.0195 93.3867 37.3008C92.8555 37.582 92.207 37.7227 91.4414 37.7227H85.9453V34.8281H91.4414C91.8555 34.8281 92.1758 34.7031 92.4023 34.4531C92.6289 34.1953 92.7422 33.8789 92.7422 33.5039C92.7422 33.1055 92.6133 32.793 92.3555 32.5664C92.1055 32.3398 91.8008 32.2266 91.4414 32.2266H85.9453C85.5312 32.2266 85.2109 32.3555 84.9844 32.6133C84.7578 32.8633 84.6445 33.1758 84.6445 33.5508V37.8047C84.6445 38.2109 84.7695 38.5273 85.0195 38.7539C85.2773 38.9805 85.5938 39.0938 85.9688 39.0938H91.4414V42H85.9453C85.5234 42 85.0664 41.9258 84.5742 41.7773C84.0898 41.6289 83.6367 41.3906 83.2148 41.0625C82.8008 40.7266 82.4531 40.293 82.1719 39.7617C81.8906 39.2227 81.75 38.5703 81.75 37.8047V33.5273C81.75 33.1055 81.8242 32.6523 81.9727 32.168C82.1211 31.6758 82.3594 31.2227 82.6875 30.8086C83.0234 30.3867 83.457 30.0352 83.9883 29.7539C84.5273 29.4727 85.1797 29.332 85.9453 29.332H91.4414C91.8633 29.332 92.3164 29.4062 92.8008 29.5547C93.293 29.7031 93.7461 29.9453 94.1602 30.2812C94.582 30.6094 94.9336 31.043 95.2148 31.582C95.4961 32.1133 95.6367 32.7617 95.6367 33.5273ZM111.656 37.7227C111.656 38.0117 111.621 38.3164 111.551 38.6367C111.488 38.957 111.387 39.2773 111.246 39.5977C111.105 39.9102 110.922 40.2109 110.695 40.5C110.477 40.7891 110.207 41.0469 109.887 41.2734C109.574 41.4922 109.211 41.668 108.797 41.8008C108.383 41.9336 107.914 42 107.391 42H101.895C101.605 42 101.301 41.9688 100.98 41.9062C100.66 41.8359 100.34 41.7305 100.02 41.5898C99.707 41.4492 99.4062 41.2695 99.1172 41.0508C98.8281 40.8242 98.5703 40.5547 98.3438 40.2422C98.125 39.9219 97.9492 39.5547 97.8164 39.1406C97.6836 38.7188 97.6172 38.2461 97.6172 37.7227V23.9766H100.664V37.7227C100.664 38.0977 100.781 38.3984 101.016 38.625C101.25 38.8438 101.543 38.9531 101.895 38.9531H107.391C107.773 38.9531 108.07 38.8398 108.281 38.6133C108.5 38.3867 108.609 38.0898 108.609 37.7227V33.5977C108.609 33.2148 108.496 32.918 108.27 32.707C108.043 32.4883 107.75 32.3789 107.391 32.3789H101.895V29.332H107.391C107.68 29.332 107.984 29.3672 108.305 29.4375C108.625 29.5 108.941 29.6016 109.254 29.7422C109.574 29.8828 109.879 30.0664 110.168 30.293C110.457 30.5117 110.711 30.7812 110.93 31.1016C111.148 31.4141 111.324 31.7773 111.457 32.1914C111.59 32.6055 111.656 33.0742 111.656 33.5977V37.7227ZM126.504 37.7227C126.504 38.2461 126.438 38.7188 126.305 39.1406C126.172 39.5547 125.996 39.9219 125.777 40.2422C125.559 40.5547 125.305 40.8242 125.016 41.0508C124.727 41.2695 124.422 41.4492 124.102 41.5898C123.789 41.7305 123.469 41.8359 123.141 41.9062C122.82 41.9688 122.516 42 122.227 42H113.977V38.9531H122.203C122.617 38.9531 122.93 38.8477 123.141 38.6367C123.352 38.4258 123.457 38.1211 123.457 37.7227C123.418 36.9102 123.008 36.5039 122.227 36.5039H117.504C116.832 36.5039 116.262 36.3867 115.793 36.1523C115.324 35.918 114.941 35.625 114.645 35.2734C114.355 34.9219 114.145 34.543 114.012 34.1367C113.887 33.7305 113.824 33.3516 113.824 33C113.824 32.3203 113.945 31.75 114.188 31.2891C114.43 30.8203 114.734 30.4414 115.102 30.1523C115.469 29.8633 115.867 29.6562 116.297 29.5312C116.727 29.3984 117.129 29.332 117.504 29.332H124.992V32.3789H117.527C117.371 32.3789 117.246 32.3984 117.152 32.4375C117.066 32.4688 117 32.5156 116.953 32.5781C116.914 32.6328 116.891 32.6953 116.883 32.7656C116.875 32.8281 116.871 32.8906 116.871 32.9531C116.879 33.0781 116.902 33.1758 116.941 33.2461C116.98 33.3164 117.027 33.3672 117.082 33.3984C117.145 33.4297 117.211 33.4492 117.281 33.457C117.359 33.457 117.434 33.457 117.504 33.457H122.227C123.008 33.457 123.672 33.5977 124.219 33.8789C124.766 34.1602 125.207 34.5156 125.543 34.9453C125.879 35.3672 126.121 35.8281 126.27 36.3281C126.426 36.8281 126.504 37.293 126.504 37.7227Z" fill="#0558AE"/>
</svg>
